<svg width="40" height="40" viewBox="0 0 40 40" fill="none" xmlns="http://www.w3.org/2000/svg">
<rect opacity="0.2" width="39.8159" height="40" rx="19.908" fill="#086CD9"/>
<path d="M19.908 12C18.333 12 16.7934 12.4692 15.4839 13.3482C14.1744 14.2273 13.1537 15.4767 12.551 16.9385C11.9483 18.4003 11.7906 20.0089 12.0978 21.5607C12.4051 23.1126 13.1635 24.538 14.2772 25.6569C15.3909 26.7757 16.8098 27.5376 18.3545 27.8463C19.8992 28.155 21.5003 27.9965 22.9554 27.391C24.4105 26.7855 25.6541 25.7602 26.5292 24.4446C27.4042 23.129 27.8712 21.5822 27.8712 20C27.8671 17.8795 27.0269 15.847 25.5344 14.3476C24.0419 12.8482 22.0187 12.0041 19.908 12ZM16.2327 20.9231C16.051 20.9231 15.8733 20.8689 15.7222 20.7675C15.5711 20.6661 15.4534 20.5219 15.3838 20.3532C15.3143 20.1846 15.2961 19.999 15.3315 19.8199C15.367 19.6409 15.4545 19.4764 15.583 19.3473C15.7115 19.2182 15.8752 19.1303 16.0534 19.0947C16.2317 19.059 16.4164 19.0773 16.5843 19.1472C16.7522 19.2171 16.8957 19.3354 16.9967 19.4872C17.0976 19.639 17.1515 19.8174 17.1515 20C17.1515 20.2448 17.0547 20.4796 16.8824 20.6527C16.7101 20.8258 16.4764 20.9231 16.2327 20.9231ZM19.908 20.9231C19.7263 20.9231 19.5486 20.8689 19.3975 20.7675C19.2464 20.6661 19.1287 20.5219 19.0591 20.3532C18.9896 20.1846 18.9714 19.999 19.0068 19.8199C19.0423 19.6409 19.1298 19.4764 19.2583 19.3473C19.3868 19.2182 19.5505 19.1303 19.7288 19.0947C19.907 19.059 20.0917 19.0773 20.2596 19.1472C20.4275 19.2171 20.571 19.3354 20.672 19.4872C20.773 19.639 20.8268 19.8174 20.8268 20C20.8268 20.2448 20.73 20.4796 20.5577 20.6527C20.3854 20.8258 20.1517 20.9231 19.908 20.9231ZM23.5833 20.9231C23.4016 20.9231 23.224 20.8689 23.0729 20.7675C22.9218 20.6661 22.804 20.5219 22.7344 20.3532C22.6649 20.1846 22.6467 19.999 22.6822 19.8199C22.7176 19.6409 22.8051 19.4764 22.9336 19.3473C23.0621 19.2182 23.2258 19.1303 23.4041 19.0947C23.5823 19.059 23.7671 19.0773 23.9349 19.1472C24.1028 19.2171 24.2463 19.3354 24.3473 19.4872C24.4483 19.639 24.5022 19.8174 24.5022 20C24.5022 20.2448 24.4053 20.4796 24.233 20.6527C24.0607 20.8258 23.827 20.9231 23.5833 20.9231Z" fill="#086CD9"/>
</svg>
