<svg width="40" height="40" viewBox="0 0 40 40" fill="none" xmlns="http://www.w3.org/2000/svg">
<rect opacity="0.2" width="39.8159" height="40" rx="19.908" fill="#05C168"/>
<path d="M23.4471 12.8887C22.7603 12.8887 22.0829 13.0493 21.4686 13.3579C20.8543 13.6665 20.32 14.1145 19.9079 14.6664C19.3508 13.9202 18.5741 13.369 17.6878 13.0908C16.8015 12.8127 15.8506 12.8218 14.9697 13.1167C14.0888 13.4117 13.3227 13.9777 12.7798 14.7344C12.2369 15.4911 11.9447 16.4003 11.9447 17.3331C11.9447 22.659 19.3106 26.859 19.6203 27.0368C19.7081 27.0864 19.8072 27.1119 19.9079 27.1109C20.0086 27.1126 20.108 27.087 20.1954 27.0368C21.5519 26.2402 22.8242 25.307 23.9927 24.2516C26.566 21.9257 27.8711 19.5998 27.8711 17.3331C27.8711 16.1544 27.405 15.0239 26.5753 14.1904C25.7457 13.3569 24.6204 12.8887 23.4471 12.8887Z" fill="#05C168"/>
</svg>
