<svg width="40" height="40" viewBox="0 0 40 40" fill="none" xmlns="http://www.w3.org/2000/svg">
<rect opacity="0.2" width="39.8159" height="40" rx="19.908" fill="#CB3CFF"/>
<path d="M17.072 19.4798C17.5818 19.4798 18.0491 19.2431 18.4271 18.8793C18.0306 18.1683 17.8043 17.3639 17.8043 16.5921C17.8043 15.9375 17.9622 15.3201 18.2401 14.7749C17.8954 14.5635 17.4925 14.4396 17.0603 14.4396C15.7971 14.4396 14.7732 15.4783 14.7732 16.7595C14.7732 18.0409 15.8088 19.4798 17.072 19.4798Z" fill="#CB3CFF"/>
<path d="M18.6103 20.5799C18.387 20.5318 18.1559 20.5051 17.9184 20.5051H16.2176C14.4076 20.5051 12.9402 21.9771 12.9402 23.793L12.9479 24.1818C12.9479 24.6892 13.3579 25.1005 13.8636 25.1005H15.5407C15.6231 23.0802 16.8612 21.3579 18.6103 20.5799Z" fill="#CB3CFF"/>
<path d="M21.7525 19.9647C23.3187 19.9647 24.5741 18.1804 24.5741 16.5917C24.5741 15.003 23.3042 13.715 21.738 13.715C20.1718 13.715 18.902 15.003 18.902 16.5917C18.9022 18.1804 20.1862 19.9647 21.7525 19.9647Z" fill="#CB3CFF"/>
<path d="M26.866 25.3137C26.866 23.062 25.0466 21.2367 22.8023 21.2367H20.6932C18.4489 21.2367 16.6294 23.062 16.6294 25.3137L16.6391 25.7959C16.6391 26.4249 17.1474 26.935 17.7746 26.935H25.7404C26.3674 26.935 26.8759 26.4249 26.8759 25.7959L26.866 25.3137Z" fill="#CB3CFF"/>
</svg>
