<svg width="32" height="32" viewBox="0 0 32 32" fill="none" xmlns="http://www.w3.org/2000/svg">
<circle opacity="0.2" cx="16" cy="16" r="16" fill="#CB3CFF"/>
<path d="M22.6667 8H9.33333C8.97971 8 8.64057 8.14048 8.39052 8.39052C8.14048 8.64057 8 8.97971 8 9.33333V20V22.6667C8 23.0203 8.14048 23.3594 8.39052 23.6095C8.64057 23.8595 8.97971 24 9.33333 24H22.6667C23.0203 24 23.3594 23.8595 23.6095 23.6095C23.8595 23.3594 24 23.0203 24 22.6667V9.33333C24 8.97971 23.8595 8.64057 23.6095 8.39052C23.3594 8.14048 23.0203 8 22.6667 8ZM20.275 14.6667C20.024 14.4193 19.6857 14.2807 19.3333 14.2807C18.9809 14.2807 18.6427 14.4193 18.3917 14.6667L14.6667 18.3917L12.9417 16.6667C12.6906 16.4193 12.3524 16.2807 12 16.2807C11.6476 16.2807 11.3094 16.4193 11.0583 16.6667L9.33333 18.3917V9.33333H22.6667V17.0583L20.275 14.6667Z" fill="#CB3CFF"/>
</svg>
