<svg width="10" height="12" viewBox="0 0 10 12" fill="none" xmlns="http://www.w3.org/2000/svg">
<path d="M4.71447 0C3.46455 0.00141795 2.26623 0.498575 1.3824 1.3824C0.498575 2.26623 0.00141795 3.46455 0 4.71447C0 8.74855 4.28588 11.7969 4.46803 11.9255C4.54103 11.9741 4.62677 12 4.71447 12C4.80217 12 4.88791 11.9741 4.96091 11.9255C5.14306 11.7969 9.42894 8.74855 9.42894 4.71447C9.42752 3.46455 8.93036 2.26623 8.04653 1.3824C7.16271 0.498575 5.96439 0.00141795 4.71447 0ZM4.71447 3.00012C5.05353 3.00012 5.38499 3.10066 5.66691 3.28904C5.94883 3.47741 6.16857 3.74516 6.29832 4.05841C6.42808 4.37167 6.46203 4.71637 6.39588 5.04892C6.32973 5.38147 6.16645 5.68694 5.9267 5.9267C5.68694 6.16646 5.38147 6.32973 5.04892 6.39588C4.71637 6.46203 4.37167 6.42808 4.05841 6.29832C3.74516 6.16857 3.47741 5.94884 3.28904 5.66691C3.10066 5.38499 3.00012 5.05354 3.00012 4.71447C3.00012 4.25979 3.18073 3.82374 3.50224 3.50224C3.82374 3.18074 4.25979 3.00012 4.71447 3.00012Z" fill="white"/>
</svg>
