<svg fill="#ffffff" width="12px" height="12px" viewBox="0 0 48 48" enable-background="new 0 0 48 48" id="Layer_3" version="1.1" xml:space="preserve" xmlns="http://www.w3.org/2000/svg" xmlns:xlink="http://www.w3.org/1999/xlink"><g id="SVGRepo_bgCarrier" stroke-width="0"></g><g id="SVGRepo_tracerCarrier" stroke-linecap="round" stroke-linejoin="round"></g><g id="SVGRepo_iconCarrier"> <g> <polygon points="27.75,9.652 27.75,1.304 20.38,1.304 20.38,9.652 15.245,9.652 24.278,19.174 32.886,9.652 "></polygon> <polygon points="24.978,26.805 24.978,46.695 24.979,46.695 40.75,46.695 40.75,45.391 40.75,26.805 24.979,26.805 "></polygon> <polygon points="7.25,26.805 7.25,46.695 7.25,46.695 23.021,46.695 23.021,45.391 23.021,26.805 7.25,26.805 "></polygon> <polygon points="40.714,24.326 48,16.129 32.151,16.129 24.978,24.327 24.979,24.326 "></polygon> <polygon points="0,16.129 7.286,24.326 23.021,24.326 23.022,24.326 15.849,16.129 "></polygon> </g> </g></svg>
