<svg width="13" height="13" viewBox="0 0 13 13" fill="none" xmlns="http://www.w3.org/2000/svg">
<path d="M11.0651 1.03017C10.8948 0.860573 10.6926 0.726406 10.4701 0.635416C10.2477 0.544425 10.0094 0.498415 9.76902 0.500042C9.52868 0.501669 9.29103 0.550901 9.06982 0.644895C8.84861 0.73889 8.64822 0.875782 8.48021 1.04767L1.61761 7.91037C1.36416 8.16383 1.18347 8.48074 1.09447 8.82796L0.513278 11.0953C0.43777 11.3899 0.70557 11.6576 1.00013 11.5821L3.2676 11.0005C3.61472 10.9115 3.93154 10.7308 4.18494 10.4774L11.0476 3.61463C11.2196 3.4467 11.3565 3.24635 11.4505 3.02517C11.5445 2.804 11.5938 2.56637 11.5954 2.32605C11.597 2.08572 11.551 1.84745 11.46 1.62502C11.369 1.40259 11.2348 1.20041 11.0651 1.03017Z" fill="white" stroke="white" stroke-linecap="round" stroke-linejoin="round"/>
</svg>
