<svg width="12" height="12" viewBox="0 0 12 12" fill="none" xmlns="http://www.w3.org/2000/svg">
<path d="M3.43017 6.04131C3.96803 7.15204 4.86619 8.04789 5.9783 8.5829C6.06033 8.62174 6.15106 8.63855 6.24157 8.63168C6.33207 8.62481 6.41923 8.59448 6.49445 8.5437L8.12787 7.45257C8.20004 7.40363 8.28343 7.37376 8.37026 7.36576C8.45709 7.35777 8.54453 7.3719 8.62443 7.40684L11.6822 8.7201C11.7867 8.7636 11.874 8.84024 11.9307 8.93823C11.9873 9.03622 12.0102 9.15012 11.9958 9.2624C11.8989 10.0188 11.5297 10.714 10.9572 11.2179C10.3848 11.7218 9.64838 11.9998 8.88577 12C6.52912 12 4.26899 11.0638 2.60258 9.39742C0.936177 7.73101 0 5.47088 0 3.11423C0.000171877 2.35162 0.278213 1.6152 0.782096 1.04277C1.28598 0.470338 1.98118 0.101122 2.7376 0.00420709C2.84988 -0.0102148 2.96378 0.0126706 3.06177 0.0693393C3.15976 0.126008 3.2364 0.213317 3.2799 0.317823L4.59316 3.38211C4.62731 3.46074 4.6416 3.54656 4.63476 3.63202C4.62793 3.71747 4.60018 3.79993 4.55396 3.87213L3.46284 5.53168C3.41426 5.60674 3.38575 5.69301 3.38003 5.78223C3.37431 5.87146 3.39157 5.96066 3.43017 6.04131Z" fill="white"/>
</svg>
