<svg width="12" height="12" viewBox="0 0 12 12" fill="none" xmlns="http://www.w3.org/2000/svg">
<path d="M11 0H1C0.734783 0 0.48043 0.105357 0.292893 0.292893C0.105357 0.48043 0 0.734783 0 1V9V11C0 11.2652 0.105357 11.5196 0.292893 11.7071C0.48043 11.8946 0.734783 12 1 12H11C11.2652 12 11.5196 11.8946 11.7071 11.7071C11.8946 11.5196 12 11.2652 12 11V1C12 0.734783 11.8946 0.48043 11.7071 0.292893C11.5196 0.105357 11.2652 0 11 0ZM9.20625 5C9.01799 4.8145 8.7643 4.71051 8.5 4.71051C8.2357 4.71051 7.98201 4.8145 7.79375 5L5 7.79375L3.70625 6.5C3.51799 6.3145 3.2643 6.21051 3 6.21051C2.7357 6.21051 2.48201 6.3145 2.29375 6.5L1 7.79375V1H11V6.79375L9.20625 5Z" fill="white"/>
</svg>
