<svg width="14" height="10" viewBox="0 0 14 10" fill="none" xmlns="http://www.w3.org/2000/svg">
<path d="M6.99995 0C11.1556 1.26684e-05 13.2682 3.06531 13.8955 4.17188C14.0347 4.41782 14.0347 4.7101 13.8955 4.95605C13.2682 6.06262 11.1556 9.12792 6.99995 9.12793C2.84424 9.12793 0.731668 6.06262 0.104439 4.95605C-0.0347954 4.71009 -0.0348308 4.41783 0.104439 4.17188C0.731668 3.06531 2.84424 0 6.99995 0ZM7.00092 2.0293C5.60071 2.02946 4.46577 3.1642 4.46577 4.56445C4.4658 5.96468 5.60073 7.09944 7.00092 7.09961C8.40126 7.09961 9.53702 5.96478 9.53706 4.56445C9.53706 3.1641 8.40128 2.0293 7.00092 2.0293Z" fill="#AEB9E1"/>
</svg>
