<svg width="27" height="27" viewBox="0 0 27 27" fill="none" xmlns="http://www.w3.org/2000/svg">
<path fill-rule="evenodd" clip-rule="evenodd" d="M9.55384 0C9.09502 0 8.72307 0.371947 8.72307 0.830768L8.72307 8.72307C3.90545 8.72307 0 12.6285 0 17.4461C0 22.2638 3.90546 26.1692 8.72308 26.1692H16.6154C17.0742 26.1692 17.4461 25.7973 17.4461 25.3385L17.4462 17.4461C22.2638 17.4461 26.1692 13.5407 26.1692 8.72307C26.1692 3.90545 22.2638 0 17.4461 0H9.55384ZM17.4462 17.4461H9.55384C9.09502 17.4461 8.72307 17.0742 8.72307 16.6154L8.72307 8.72307H16.6154C17.0742 8.72307 17.4461 9.09502 17.4461 9.55384L17.4462 17.4461Z" fill="#CB3CFF"/>
<path d="M9.46027 0C9.05315 0 8.72311 0.330038 8.72311 0.737161L8.72311 8.72307H16.709C17.1161 8.72307 17.4462 9.05311 17.4462 9.46024L17.4462 17.4461C22.2638 17.4461 26.1693 13.5407 26.1693 8.72307C26.1693 3.90545 22.2638 0 17.4462 0H9.46027Z" fill="#00C2FF"/>
</svg>
