<svg width="51" height="18" viewBox="0 0 51 18" fill="none" xmlns="http://www.w3.org/2000/svg">
<rect width="51" height="18" rx="2" fill="#F1F1F3" fill-opacity="0.2"/>
<rect x="0.3" y="0.3" width="50.4" height="17.4" rx="1.7" stroke="#AEB9E1" stroke-opacity="0.2" stroke-width="0.6"/>
<circle cx="7.5" cy="9" r="1.5" fill="#AEB9E1"/>
<path d="M16.99 12.09C19.15 12.09 20.59 10.68 20.59 8.36C20.59 6.04 19.16 4.63 16.99 4.63C14.83 4.63 13.4 6.04 13.4 8.36C13.4 10.67 14.82 12.09 16.99 12.09ZM16.99 11.15C15.48 11.15 14.52 10.13 14.52 8.36C14.52 6.59 15.47 5.57 16.99 5.57C18.51 5.57 19.47 6.59 19.47 8.36C19.47 10.12 18.51 11.15 16.99 11.15ZM22.1185 12H23.1485V7.55H24.3185V6.71H23.1485V6.03C23.1485 5.69 23.2785 5.46 23.7485 5.46H24.4285V4.71H23.4785C22.6385 4.71 22.1185 5.13 22.1185 5.93V6.71H21.1585V7.55H22.1185V12ZM25.8295 12H26.8595V7.55H28.0295V6.71H26.8595V6.03C26.8595 5.69 26.9895 5.46 27.4595 5.46H28.1395V4.71H27.1895C26.3495 4.71 25.8295 5.13 25.8295 5.93V6.71H24.8695V7.55H25.8295V12ZM28.9251 12H29.9551V4.71H28.9251V12ZM31.386 5.9H32.416V4.71H31.386V5.9ZM31.386 12H32.416V6.71H31.386V12ZM33.847 12H34.867V9.11C34.867 8.2 35.437 7.48 36.347 7.48C37.187 7.48 37.577 7.99 37.577 9.07V12H38.607V8.86C38.607 7.24 37.797 6.63 36.717 6.63C35.937 6.63 35.237 7.01 34.927 7.76H34.867L34.827 6.71H33.847V12ZM42.1993 12.09C43.4493 12.09 44.4093 11.41 44.5493 10.37H43.5693C43.4393 10.92 42.9093 11.27 42.1993 11.27C41.2793 11.27 40.6793 10.65 40.6593 9.56H44.5793C44.7393 7.9 43.8993 6.63 42.1593 6.63C40.6093 6.63 39.6393 7.71 39.6393 9.38C39.6393 11.01 40.6093 12.09 42.1993 12.09ZM42.1493 7.44C42.9293 7.44 43.5393 7.85 43.5693 8.83H40.6793C40.7593 7.97 41.3193 7.44 42.1493 7.44Z" fill="#AEB9E1"/>
</svg>
