<svg width="50" height="18" viewBox="0 0 50 18" fill="none" xmlns="http://www.w3.org/2000/svg">
<rect width="50" height="18" rx="2" fill="#05C168" fill-opacity="0.2"/>
<rect x="0.3" y="0.3" width="49.4" height="17.4" rx="1.7" stroke="#05C168" stroke-opacity="0.5" stroke-width="0.6"/>
<circle cx="7.5" cy="9" r="1.5" fill="#05C168"/>
<path d="M16.99 12.09C19.15 12.09 20.59 10.68 20.59 8.36C20.59 6.04 19.16 4.63 16.99 4.63C14.83 4.63 13.4 6.04 13.4 8.36C13.4 10.67 14.82 12.09 16.99 12.09ZM16.99 11.15C15.48 11.15 14.52 10.13 14.52 8.36C14.52 6.59 15.47 5.57 16.99 5.57C18.51 5.57 19.47 6.59 19.47 8.36C19.47 10.12 18.51 11.15 16.99 11.15ZM21.6985 12H22.7185V9.11C22.7185 8.2 23.2885 7.48 24.1985 7.48C25.0385 7.48 25.4285 7.99 25.4285 9.07V12H26.4585V8.86C26.4585 7.24 25.6485 6.63 24.5685 6.63C23.7885 6.63 23.0885 7.01 22.7785 7.76H22.7185L22.6785 6.71H21.6985V12ZM27.8509 12H28.8809V4.71H27.8509V12ZM30.3118 5.9H31.3418V4.71H30.3118V5.9ZM30.3118 12H31.3418V6.71H30.3118V12ZM32.7727 12H33.7927V9.11C33.7927 8.2 34.3627 7.48 35.2727 7.48C36.1127 7.48 36.5027 7.99 36.5027 9.07V12H37.5327V8.86C37.5327 7.24 36.7227 6.63 35.6427 6.63C34.8627 6.63 34.1627 7.01 33.8527 7.76H33.7927L33.7527 6.71H32.7727V12ZM41.1251 12.09C42.3751 12.09 43.3351 11.41 43.4751 10.37H42.4951C42.3651 10.92 41.8351 11.27 41.1251 11.27C40.2051 11.27 39.6051 10.65 39.5851 9.56H43.5051C43.6651 7.9 42.8251 6.63 41.0851 6.63C39.5351 6.63 38.5651 7.71 38.5651 9.38C38.5651 11.01 39.5351 12.09 41.1251 12.09ZM41.0751 7.44C41.8551 7.44 42.4651 7.85 42.4951 8.83H39.6051C39.6851 7.97 40.2451 7.44 41.0751 7.44Z" fill="#14CA74"/>
</svg>
