<svg width="12" height="12" viewBox="0 0 12 12" fill="none" xmlns="http://www.w3.org/2000/svg">
<path d="M6 0C9.31371 0 12 2.68629 12 6C12 9.31371 9.31371 12 6 12C2.68629 12 0 9.31371 0 6C0 2.68629 2.68629 0 6 0ZM6.00098 2.57129C5.67818 2.57159 5.41604 2.83339 5.41602 3.15625V5.41602H3.15527C2.83235 5.41617 2.57033 5.67802 2.57031 6.00098C2.57053 6.32376 2.83247 6.58578 3.15527 6.58594H5.41602V8.84375C5.41617 9.1665 5.67826 9.4284 6.00098 9.42871C6.32395 9.42871 6.58578 9.16669 6.58594 8.84375V6.58594H8.84277C9.16557 6.58578 9.42751 6.32376 9.42773 6.00098C9.42772 5.67802 9.1657 5.41617 8.84277 5.41602H6.58594V3.15625C6.58591 2.8332 6.32403 2.57129 6.00098 2.57129Z" fill="#AEB9E1"/>
</svg>
