<svg width="12" height="12" viewBox="0 0 12 12" fill="none" xmlns="http://www.w3.org/2000/svg">
<path d="M5.63815 0.481435C5.79968 0.204105 6.20032 0.204105 6.36185 0.481435L8.07316 3.41956C8.13233 3.52115 8.23148 3.59319 8.34638 3.61807L11.6695 4.33769C11.9832 4.40561 12.107 4.78665 11.8932 5.02597L9.62767 7.56145C9.54933 7.64912 9.51146 7.76568 9.5233 7.88265L9.86582 11.2655C9.89814 11.5848 9.57401 11.8203 9.28032 11.6909L6.16886 10.3198C6.06128 10.2724 5.93872 10.2724 5.83114 10.3198L2.71968 11.6909C2.42599 11.8203 2.10186 11.5848 2.13419 11.2655L2.4767 7.88265C2.48854 7.76568 2.45067 7.64912 2.37233 7.56145L0.106835 5.02597C-0.107006 4.78665 0.0168003 4.40561 0.330472 4.33769L3.65362 3.61807C3.76852 3.59319 3.86767 3.52115 3.92684 3.41956L5.63815 0.481435Z" fill="#AEB9E1"/>
</svg>
