<svg width="16" height="16" viewBox="0 0 16 16" fill="none" xmlns="http://www.w3.org/2000/svg">
<path d="M8.00835 9.22158C8.68363 9.22158 9.23105 8.67475 9.23105 8.0002C9.23105 7.32564 8.68363 6.77881 8.00835 6.77881C7.33307 6.77881 6.78564 7.32564 6.78564 8.0002C6.78564 8.67475 7.33307 9.22158 8.00835 9.22158Z" fill="#D9E1FA"/>
<path d="M13.7856 9.22158C14.4609 9.22158 15.0083 8.67475 15.0083 8.0002C15.0083 7.32564 14.4609 6.77881 13.7856 6.77881C13.1103 6.77881 12.5629 7.32564 12.5629 8.0002C12.5629 8.67475 13.1103 9.22158 13.7856 9.22158Z" fill="#D9E1FA"/>
<path d="M2.231 9.22158C2.90629 9.22158 3.45371 8.67475 3.45371 8.0002C3.45371 7.32564 2.90629 6.77881 2.231 6.77881C1.55572 6.77881 1.0083 7.32564 1.0083 8.0002C1.0083 8.67475 1.55572 9.22158 2.231 9.22158Z" fill="#D9E1FA"/>
</svg>
