<svg width="40" height="40" viewBox="0 0 25 25"
     fill="none" xmlns="http://www.w3.org/2000/svg">

  <!-- Shadow -->
  <!-- <defs>
    <filter id="shadow" x="6" y="6" width="28" height="28"
            filterUnits="userSpaceOnUse">
      <feDropShadow dx="0" dy="2" stdDeviation="2"
                    flood-color="#000" flood-opacity="0.12"/>
    </filter>
  </defs> -->

  <!-- <g filter="url(#shadow)"> -->
    <!-- Background circle -->
    <rect x="2.3" y="2.3" width="20" height="20" rx="10" fill="white"/>
    <rect x="2.6" y="2.6" width="19.4" height="19.4"
          rx="9.7" stroke="#E9EAF3" stroke-width="0.6"/>

    <!-- Google icon (scaled & centered) -->
    <g transform="translate(-9.5 -7.3) scale(1.1)">
      <path d="M25.3836 18.1243C25.3836 17.7622 25.3515 17.4185 25.2965 17.0839H20.1172V19.151H23.0827C22.9498 19.8294 22.5602 20.4023 21.9827 20.7919V22.1669H23.7519C24.7877 21.209 25.3836 19.7973 25.3836 18.1243Z" fill="#4285F4"/>
      <path d="M20.1175 23.4997C21.6026 23.4997 22.8447 23.0047 23.7522 22.166L21.983 20.7909C21.488 21.1209 20.86 21.3226 20.1175 21.3226C18.6829 21.3226 17.4683 20.3555 17.0328 19.0492H15.2086V20.4655C16.1116 22.2622 17.9679 23.4997 20.1175 23.4997Z" fill="#34A853"/>
      <path d="M17.0322 19.049C16.9176 18.719 16.858 18.366 16.858 17.9994C16.858 17.6327 16.9222 17.2797 17.0322 16.9497V15.5334H15.208C14.8321 16.276 14.6167 17.1102 14.6167 17.9994C14.6167 18.8885 14.8321 19.7227 15.208 20.4653L17.0322 19.049Z" fill="#FBBC05"/>
      <path d="M20.1175 14.6767C20.9288 14.6767 21.653 14.9563 22.2259 15.5017L23.7935 13.9341C22.8447 13.0449 21.6026 12.4995 20.1175 12.4995C17.9679 12.4995 16.1116 13.737 15.2086 15.5338L17.0328 16.9501C17.4683 15.6438 18.6829 14.6767 20.1175 14.6767Z" fill="#EA4335"/>
    </g>
  <!-- </g> -->

</svg>
