<svg width="12" height="12" viewBox="0 0 12 12" fill="none" xmlns="http://www.w3.org/2000/svg">
<path d="M11.0769 2.5335H8.72885C8.61778 1.89028 8.28306 1.30696 7.78378 0.886506C7.2845 0.466049 6.65274 0.235474 6 0.235474C5.34726 0.235474 4.7155 0.466049 4.21622 0.886506C3.71694 1.30696 3.38222 1.89028 3.27115 2.5335H0.923077C0.678262 2.5335 0.443473 2.63075 0.270363 2.80386C0.0972524 2.97697 0 3.21176 0 3.45657V10.8412C0 11.086 0.0972524 11.3208 0.270363 11.4939C0.443473 11.667 0.678262 11.7643 0.923077 11.7643H11.0769C11.3217 11.7643 11.5565 11.667 11.7296 11.4939C11.9027 11.3208 12 11.086 12 10.8412V3.45657C12 3.21176 11.9027 2.97697 11.7296 2.80386C11.5565 2.63075 11.3217 2.5335 11.0769 2.5335ZM6 1.14888C6.40919 1.14966 6.8066 1.28594 7.13016 1.53644C7.45372 1.78694 7.68521 2.13754 7.78846 2.5335H4.21154C4.31479 2.13754 4.54628 1.78694 4.86984 1.53644C5.19339 1.28594 5.59081 1.14966 6 1.14888Z" fill="white"/>
</svg>
