<svg width="10" height="10" viewBox="0 0 10 10" fill="none" xmlns="http://www.w3.org/2000/svg">
<path d="M9.23077 2.11125H7.27404C7.18148 1.57523 6.90255 1.08914 6.48648 0.738755C6.07042 0.388374 5.54395 0.196228 5 0.196228C4.45605 0.196228 3.92959 0.388374 3.51352 0.738755C3.09745 1.08914 2.81852 1.57523 2.72596 2.11125H0.769231C0.565218 2.11125 0.369561 2.19229 0.225302 2.33655C0.0810437 2.48081 0 2.67646 0 2.88048V9.03432C0 9.23834 0.0810437 9.43399 0.225302 9.57825C0.369561 9.72251 0.565218 9.80355 0.769231 9.80355H9.23077C9.43478 9.80355 9.63044 9.72251 9.7747 9.57825C9.91896 9.43399 10 9.23834 10 9.03432V2.88048C10 2.67646 9.91896 2.48081 9.7747 2.33655C9.63044 2.19229 9.43478 2.11125 9.23077 2.11125V2.11125ZM5 0.9574C5.34099 0.958051 5.67217 1.07162 5.9418 1.28037C6.21144 1.48911 6.40434 1.78129 6.49038 2.11125H3.50962C3.59566 1.78129 3.78856 1.48911 4.0582 1.28037C4.32783 1.07162 4.65901 0.958051 5 0.9574V0.9574Z" fill="#AEB9E1"/>
</svg>
