<svg width="12" height="12" viewBox="0 0 12 12" fill="none" xmlns="http://www.w3.org/2000/svg">
<path d="M4.88184 6.75586C5.53032 7.29502 6.47167 7.2951 7.12012 6.75586L11.9229 2.75977C11.9719 2.93309 12 3.11568 12 3.30469V8.69531C12 9.79988 11.1046 10.6953 10 10.6953H2C0.895431 10.6953 0 9.79988 0 8.69531V3.30469C0 3.11535 0.0279836 2.93238 0.0771484 2.75879L4.88184 6.75586ZM10 1.30469C10.3655 1.30469 10.7071 1.40401 11.002 1.5752L6.16016 5.60254C6.06756 5.67915 5.9333 5.67938 5.84082 5.60254L0.998047 1.5752C1.29286 1.40401 1.63454 1.30469 2 1.30469H10Z" fill="white"/>
</svg>
