<svg width="14" height="14" viewBox="0 0 14 14" fill="none" xmlns="http://www.w3.org/2000/svg">
<path d="M3.36257 13.4401C3.21408 13.4401 3.07168 13.3811 2.96668 13.2762C2.86169 13.1712 2.8027 13.0288 2.8027 12.8803V9.89199C2.49555 10.0385 2.15515 10.1013 1.81594 10.0739C1.52872 10.0528 1.24969 9.96869 0.998699 9.82748C0.747707 9.68627 0.530926 9.49147 0.363785 9.25694C0.196643 9.02242 0.0832509 8.75394 0.0316773 8.4706C-0.0198963 8.18727 -0.00838304 7.89605 0.0653976 7.61767C0.139178 7.33929 0.273412 7.0806 0.458547 6.86C0.643681 6.63941 0.875164 6.46233 1.13652 6.34137C1.39788 6.22042 1.68268 6.15855 1.97067 6.16019C2.25865 6.16183 2.54274 6.22692 2.8027 6.35084V3.36257C2.8027 3.21408 2.86169 3.07168 2.96668 2.96668C3.07168 2.86169 3.21408 2.8027 3.36257 2.8027H6.63078C6.48426 2.49555 6.42149 2.15515 6.44882 1.81594C6.46992 1.52872 6.55408 1.24969 6.69529 0.998699C6.8365 0.747707 7.0313 0.530926 7.26582 0.363785C7.50035 0.196643 7.76883 0.0832509 8.05217 0.0316773C8.3355 -0.0198963 8.62672 -0.00838304 8.9051 0.0653976C9.18347 0.139178 9.44217 0.273412 9.66276 0.458547C9.88336 0.643681 10.0604 0.875164 10.1814 1.13652C10.3024 1.39788 10.3642 1.68268 10.3626 1.97067C10.3609 2.25865 10.2958 2.54274 10.1719 2.8027H13.4401C13.5886 2.8027 13.731 2.86169 13.836 2.96668C13.941 3.07168 14 3.21408 14 3.36257V6.35084C13.6929 6.20433 13.3524 6.14156 13.0132 6.16889C12.726 6.18999 12.447 6.27414 12.196 6.41536C11.945 6.55657 11.7282 6.75137 11.5611 6.98589C11.3939 7.22042 11.2805 7.4889 11.229 7.77223C11.1774 8.05557 11.1889 8.34679 11.2627 8.62516C11.3365 8.90354 11.4707 9.16224 11.6558 9.38283C11.841 9.60343 12.0725 9.78051 12.3338 9.90146C12.5952 10.0224 12.88 10.0843 13.168 10.0826C13.456 10.081 13.74 10.0159 14 9.89199V12.8803C14 13.0288 13.941 13.1712 13.836 13.2762C13.731 13.3811 13.5886 13.4401 13.4401 13.4401H3.36257Z" fill="#AEB9E1"/>
</svg>
