<svg width="14" height="14" viewBox="0 0 14 14" fill="none" xmlns="http://www.w3.org/2000/svg">
<path fill-rule="evenodd" clip-rule="evenodd" d="M5.25561 0C4.97947 0 4.75561 0.223857 4.75561 0.5V3.11548L2.49256 1.80863C2.25343 1.67054 1.94766 1.75247 1.80961 1.99163L0.0674535 5.00976C-0.0705961 5.24892 0.0113488 5.55475 0.250483 5.69284L2.51354 6.99969L0.250374 8.3066C0.0112398 8.44469 -0.0707055 8.75052 0.0673441 8.98968L1.8095 12.0078C1.94755 12.247 2.25332 12.3289 2.49245 12.1908L4.75561 10.8839V13.5C4.75561 13.7761 4.97947 14 5.25561 14H8.73977C9.01591 14 9.23977 13.7761 9.23977 13.5V10.8839L11.5063 12.1928C11.7455 12.3309 12.0512 12.2489 12.1893 12.0098L13.9314 8.99163C14.0695 8.75247 13.9875 8.44665 13.7484 8.30855L11.4819 6.99969L13.7483 5.69088C13.9874 5.55279 14.0694 5.24697 13.9313 5.00781L12.1892 1.98968C12.0511 1.75052 11.7454 1.66859 11.5062 1.80668L9.23977 3.11549V0.5C9.23977 0.223858 9.01591 0 8.73977 0H5.25561ZM6.99912 8.87256C8.03322 8.87256 8.87153 8.03408 8.87153 6.99976C8.87153 5.96544 8.03322 5.12695 6.99912 5.12695C5.96501 5.12695 5.12671 5.96544 5.12671 6.99976C5.12671 8.03408 5.96501 8.87256 6.99912 8.87256Z" fill="#AEB9E1"/>
</svg>
