<svg width="14" height="14" viewBox="0 0 14 14" fill="none" xmlns="http://www.w3.org/2000/svg">
<path d="M6.57786 0.561512C6.76631 0.23796 7.23373 0.237959 7.42219 0.561511L9.41871 3.98932C9.48774 4.10785 9.60342 4.19189 9.73747 4.22092L13.6145 5.06047C13.9804 5.13972 14.1249 5.58426 13.8754 5.86347L11.2323 8.82153C11.1409 8.92381 11.0967 9.05979 11.1105 9.19626L11.5101 13.1429C11.5479 13.5155 11.1697 13.7902 10.8271 13.6392L7.19703 12.0396C7.07152 11.9843 6.92853 11.9843 6.80302 12.0396L3.17298 13.6392C2.83034 13.7902 2.45219 13.5155 2.48991 13.1429L2.8895 9.19626C2.90332 9.05979 2.85914 8.92381 2.76775 8.82153L0.124663 5.86347C-0.124818 5.58426 0.0196233 5.13972 0.385574 5.06047L4.26257 4.22092C4.39663 4.19189 4.51231 4.10785 4.58134 3.98932L6.57786 0.561512Z" fill="#AEB9E1"/>
</svg>
