<svg width="12" height="13" viewBox="0 0 12 13" fill="none" xmlns="http://www.w3.org/2000/svg">
<path d="M1.76923 5.21179C1.76845 4.65294 1.87823 4.09946 2.09227 3.58322C2.30631 3.06698 2.62036 2.59819 3.01635 2.20384C3.41234 1.8095 3.88243 1.49739 4.39956 1.28551C4.91668 1.07362 5.47062 0.966133 6.02946 0.969243C8.36287 0.98692 10.2308 2.92553 10.2308 5.26483V5.68319C10.2308 7.79268 10.6727 9.0183 11.0616 9.69004C11.1029 9.76158 11.1247 9.84272 11.1248 9.92532C11.1248 10.0079 11.1032 10.0891 11.062 10.1607C11.0208 10.2323 10.9616 10.2919 10.8901 10.3334C10.8187 10.3748 10.7376 10.3968 10.655 10.3971H1.34498C1.26237 10.3968 1.18129 10.3748 1.10986 10.3334C1.03843 10.2919 0.979161 10.2323 0.937984 10.1607C0.896807 10.0891 0.875171 10.0079 0.875244 9.92532C0.875318 9.84272 0.897097 9.76158 0.938401 9.69004C1.3273 9.0183 1.76923 7.79268 1.76923 5.68319V5.21179Z" fill="#AEB9E1"/>
<path d="M4.11279 9.64301V10.1144C4.11279 10.6145 4.31145 11.0941 4.66507 11.4477C5.01868 11.8013 5.49828 12 5.99837 12C6.49846 12 6.97806 11.8013 7.33168 11.4477C7.68529 11.0941 7.88395 10.6145 7.88395 10.1144V9.64301" stroke="#AEB9E1" stroke-width="0.768422" stroke-linecap="round" stroke-linejoin="round"/>
</svg>
