<svg width="10" height="10" viewBox="0 0 10 10" fill="none" xmlns="http://www.w3.org/2000/svg">
<path d="M5.00244 0C5.36975 0 5.66744 0.297741 5.66748 0.665039V1.00195C5.9734 1.00204 6.27643 1.06169 6.55908 1.17871C6.84201 1.2959 7.09937 1.46804 7.31592 1.68457C7.53249 1.90114 7.70457 2.15845 7.82178 2.44141C7.93894 2.72432 7.99951 3.02777 7.99951 3.33398C7.99942 3.70124 7.70077 3.99902 7.3335 3.99902C6.96643 3.99878 6.66855 3.70109 6.66846 3.33398C6.66846 3.2024 6.64264 3.07176 6.59229 2.9502C6.54193 2.82872 6.46847 2.71798 6.37549 2.625C6.28247 2.53201 6.17181 2.45854 6.05029 2.4082C5.92872 2.35785 5.79809 2.33203 5.6665 2.33203H4.1665C3.90076 2.33203 3.64543 2.43709 3.45752 2.625C3.26964 2.81291 3.16455 3.06826 3.16455 3.33398C3.1646 3.5995 3.26988 3.85415 3.45752 4.04199C3.64543 4.2299 3.90076 4.33594 4.1665 4.33594H6.00049C6.61876 4.336 7.21164 4.58149 7.64893 5.01855C8.08628 5.45591 8.3325 6.04945 8.33252 6.66797C8.33252 7.28652 8.08631 7.88 7.64893 8.31738C7.21163 8.7545 6.6188 8.99994 6.00049 9H5.66748V9.33496C5.66744 9.70226 5.36975 10 5.00244 10C4.63518 9.99994 4.33744 9.70222 4.3374 9.33496V9H3.99951C3.38104 8.99995 2.78743 8.75471 2.3501 8.31738C1.91281 7.88002 1.66748 7.28645 1.66748 6.66797C1.66753 6.3007 1.96525 6.00297 2.33252 6.00293C2.69982 6.00293 2.99751 6.30068 2.99756 6.66797C2.99756 6.93372 3.10359 7.18904 3.2915 7.37695C3.47934 7.5646 3.734 7.66987 3.99951 7.66992H6.00049C6.266 7.66986 6.52067 7.5646 6.7085 7.37695C6.89641 7.18904 7.00244 6.93372 7.00244 6.66797C7.00242 6.40229 6.89634 6.14785 6.7085 5.95996C6.52064 5.7721 6.26615 5.66608 6.00049 5.66602H4.1665C3.54801 5.66602 2.95446 5.4207 2.51709 4.9834C2.07975 4.54606 1.83452 3.95247 1.83447 3.33398C1.83447 2.71546 2.07974 2.12194 2.51709 1.68457C2.95447 1.24719 3.54796 1.00195 4.1665 1.00195H4.3374V0.665039C4.33744 0.297778 4.63518 5.96095e-05 5.00244 0Z" fill="#AEB9E1"/>
</svg>
