<svg width="12" height="10" viewBox="0 0 12 10" fill="none" xmlns="http://www.w3.org/2000/svg">
<path d="M4.88184 5.45117C5.53032 5.99033 6.47167 5.99041 7.12012 5.45117L11.9229 1.45508C11.9719 1.6284 12 1.81099 12 2V7.39062C12 8.49519 11.1046 9.39062 10 9.39062H2C0.895431 9.39062 0 8.49519 0 7.39062V2C0 1.81066 0.0279836 1.6277 0.0771484 1.4541L4.88184 5.45117ZM10 0C10.3655 0 10.7071 0.0993177 11.002 0.270508L6.16016 4.29785C6.06756 4.37446 5.9333 4.37469 5.84082 4.29785L0.998047 0.270508C1.29286 0.0993175 1.63454 0 2 0H10Z" fill="#aeb9e1"/>
</svg>
